<svg viewBox="0 0 1000 1000" xmlns="http://www.w3.org/2000/svg"><path d="m82.7 552.5-61.27 83 42.57 106.5 531.13 43.5 16.37-167z" fill="#fad8bd"/><path d="m946.5 266.5s-24 75-22 101 21 48 21 48l-350.37 370s-27.63-39-22.63-79 39-88 39-88z" fill="#f2ba99" stroke="#b64f3c" stroke-miterlimit="10" stroke-width="3"/><g fill="#e59b7c"><path d="m86.51 602.35c18.76 1.31 37.49 2.9 56.21 4.57s37.44 3.39 56.12 5.46l28 3.2c9.33 1.08 18.67 2.15 28 3.12 18.69 1.95 37.41 3.63 56.14 5.23s37.46 3.21 56.17 5 37.43 3.48 56.13 5.37c37.39 3.86 74.76 7.92 112.08 12.57v.3c-37.5-2.76-74.94-6.12-112.37-9.68-18.7-1.82-37.39-3.8-56.09-5.75s-37.37-4-56.05-6.15-37.36-4.13-56.08-5.9c-9.35-.88-18.72-1.66-28.09-2.43l-28.09-2.37c-18.73-1.64-37.41-3.72-56.1-5.66s-37.37-4.16-56-6.56z"/><path d="m80.42 624.6c19.32 1.78 38.61 3.84 57.88 6s38.55 4.33 57.78 6.87l28.83 3.89c9.61 1.32 19.22 2.62 28.84 3.83 19.24 2.41 38.52 4.57 57.8 6.64s38.57 4.15 57.83 6.38 38.54 4.42 57.79 6.78c38.49 4.8 76.95 9.79 115.35 15.38v.3c-38.62-3.7-77.17-8-115.7-12.5-19.25-2.28-38.49-4.73-57.73-7.16s-38.48-4.94-57.7-7.55-38.45-5.07-57.72-7.3c-9.67-1.16-19.32-2.16-28.96-3.16l-28.93-3.07c-19.28-2.11-38.51-4.65-57.75-7.07s-38.46-5.09-57.64-8z"/><path d="m76.52 652.48c19.64 1.7 39.26 3.68 58.86 5.74s39.2 4.17 58.76 6.63l29.33 3.78c9.77 1.28 19.55 2.54 29.34 3.71 19.57 2.34 39.17 4.42 58.78 6.41s39.23 4 58.82 6.15 39.19 4.26 58.77 6.54c39.15 4.64 78.28 9.48 117.34 14.91v.3c-39.27-3.54-78.48-7.69-117.66-12-19.59-2.2-39.16-4.57-58.73-6.92s-39.13-4.79-58.68-7.32-39.12-4.91-58.72-7.07c-9.79-1.07-19.6-2-29.41-3l-29.42-3c-19.61-2-39.17-4.49-58.74-6.83s-39.16-4.95-58.68-7.74z"/><path d="m69.52 675.35c20.11 1.87 40.2 4 60.27 6.26s40.14 4.52 60.16 7.15l30 4c10 1.36 20 2.71 30 4 20 2.5 40.11 4.75 60.19 6.91s40.16 4.34 60.22 6.67 40.13 4.6 60.17 7.06c40.09 5 80.14 10.16 120.13 15.94v.3c-40.21-3.89-80.35-8.38-120.47-13.06-20-2.38-40.09-4.92-60.13-7.44s-40.06-5.14-60.06-7.82-40.05-5.26-60.11-7.59c-10-1.16-20.07-2.22-30.11-3.28l-30.13-3.21c-20.07-2.2-40.1-4.84-60.14-7.35s-40-5.28-60-8.24z"/><path d="m76.52 693c20.16 2.4 40.27 5.07 60.38 7.82s40.2 5.57 60.25 8.72l30 4.81c10 1.63 20 3.24 30.07 4.75 20.06 3 40.16 5.8 60.28 8.48s40.23 5.38 60.32 8.23 40.19 5.65 60.26 8.63c40.13 6 80.24 12.24 120.25 19.06v.29c-40.29-4.93-80.5-10.46-120.68-16.19-20.08-2.89-40.14-6-60.2-9s-40.11-6.18-60.15-9.4-40.09-6.29-60.18-9.14c-10-1.42-20.11-2.75-30.17-4.06l-30.18-4c-20.1-2.72-40.15-5.88-60.21-8.91s-40.09-6.32-60.09-9.8z"/></g><path d="m920.61 337.61c-13.42 14.46-27.05 28.73-40.73 42.95s-27.4 28.38-41.36 42.31l-21 20.84q-10.51 10.4-21 20.88-20.81 21-41.19 42.49t-41 42.66c-13.74 14.15-27.46 28.33-41.3 42.38-27.74 28.06-55.61 56-83.91 83.49l-.22-.22c27-28.83 54.33-57.24 81.84-85.51q20.68-21.17 41.58-42.12t41.85-41.84q21-20.85 41.68-42c6.87-7.08 13.67-14.22 20.47-21.37l20.42-21.41c13.66-14.24 27.63-28.17 41.51-42.19s28-27.85 42.15-41.55z" fill="#d47053"/><path d="m916.61 363.61c-13.49 14.38-27.18 28.57-40.92 42.7s-27.53 28.22-41.55 42.07l-21.14 20.71q-10.54 10.34-21 20.75c-13.94 13.94-27.69 28.06-41.39 42.24s-27.39 28.35-41.2 42.41-27.59 28.16-41.49 42.14c-27.86 27.89-55.86 55.65-84.28 83l-.22-.22c27.08-28.67 54.58-56.91 82.22-85q20.77-21 41.76-41.86t42-41.59c14.05-13.82 28.05-27.7 41.86-41.76q10.35-10.56 20.56-21.25l20.52-21.29c13.73-14.15 27.76-28 41.7-41.93s28.07-27.68 42.33-41.3z" fill="#d47053"/><path d="m916.61 390c-13.49 14.49-27.18 28.78-40.91 43s-27.53 28.43-41.56 42.39l-21.14 20.85c-7 6.94-14.09 13.9-21.06 20.91q-20.91 21.08-41.38 42.56t-41.21 42.73c-13.8 14.18-27.59 28.38-41.49 42.46-27.86 28.1-55.86 56.1-84.25 83.62l-.22-.21c27.07-28.88 54.61-57.31 82.22-85.66q20.77-21.2 41.76-42.18t42-41.91q21.09-20.89 41.87-42.09c6.9-7.09 13.73-14.24 20.56-21.4l20.52-21.45c13.72-14.26 27.75-28.21 41.69-42.26s28.08-27.89 42.34-41.61z" fill="#d47053"/><path d="m924.61 410.6c-13.33 14.76-26.86 29.31-40.45 43.82s-27.22 29-41.1 43.19l-20.88 21.28q-10.47 10.62-20.84 21.32-20.69 21.48-40.93 43.36t-40.75 43.53q-20.48 21.67-41 43.25c-27.56 28.65-55.26 57.16-83.39 85.25l-.22-.2q40.14-44.11 81.29-87.25 20.55-21.61 41.31-43t41.6-42.72q20.87-21.28 41.41-42.89 10.25-10.83 20.34-21.8l20.28-21.85c13.57-14.53 27.46-28.75 41.25-43.06s27.77-28.44 41.89-42.43z" fill="#d47053"/><path d="m612 615-521.5-55.87-25.5 32.87 528 54z" fill="#f2ba99"/><g stroke="#650f15" stroke-linecap="round" stroke-linejoin="round" stroke-width="3"><path d="m90.5 571.5s-26.49 39-29.24 55-4.76 46 2.24 61 20 31 20 31l-7 15-38-23-12-95 59-55z" fill="#7a1b1a"/><path d="m105.5 515.5c-24 0-48 23-62 37-3 3-14 19-23 39s-16 58-12 85 16 53 33 66a63.26 63.26 0 0 0 35 13v-22s-11-11-19-21-11-24-12-34 1-30 2-39 9-30 14-38 13-22 20-28 24-5 24-5z" fill="#983229"/><path d="m613.5 548.5c-6.62-9.45-454.7-20.69-503.67-21.89a4.22 4.22 0 0 0 -4.33 4.23v33.88a4.25 4.25 0 0 0 3.76 4.21l502.74 57.07a4.24 4.24 0 0 0 4.71-4c.77-15.36 2.69-65.06-3.21-73.5z" fill="#983229"/><path d="m615.5 624.5-1-84 347-331s7 41-3 52z" fill="#7a1b1a"/><g fill="#983229"><path d="m959.86 216.71-334.45 352.35a29.29 29.29 0 0 1 -24.23 9l-484.07-49.85c-6.4-.66-29.61-1.71-4.23-12.92l384.71-348.45a7.45 7.45 0 0 1 5.64-1.9l451.88 39.22a7.45 7.45 0 0 1 4.75 12.55z"/><path d="m498.5 165.5s-21-10-30-7l-425 394c29-19 49-29 61-26z"/><path d="m76.5 733.5 538 75.33-8 28.67-530-82z"/><path d="m83.5 718.5 511.63 67 19.37 23.33-538-75.33z"/><path d="m945.5 415.5c11-3 32 7 32 7l-363 386.33s-17.74-17.33-19.37-23.33 350.37-370 350.37-370z"/></g><path d="m977.5 422.5s-1 27-8 40l-363 375 8-28.67z" fill="#7a1b1a"/></g><path d="m500 675.52-71 90.48-12.82-34.78-54.18 16.03 68.95-80.25z" fill="#1f4459"/><text fill="#fad8bd" font-family="P22CezannePro, P22 Cezanne Pro" font-size="144.92" transform="matrix(.67 .06 -.62 .79 431.09 296.92)">Reiseboka</text></svg>