<svg viewBox="0 0 1000 1000" xmlns="http://www.w3.org/2000/svg"><path d="m811 119s54 25 59 33 14 41 18 63-15 187-16 208 3 103 1 132-14 124-20 141-32 91-32 91l7 62 38-55 35-118 12-100v-152l11-106 8-59v-59.11l-18-40.89-53-53z" fill="#983229"/><path d="m634 138s98-71 148-69 81 15 105 31 45 74 45 74-22-37-66-48-101-13-101-13l-75 29z" fill="#e59b7c"/><path d="m709 146s73-29 106-24 88 38 95 45 16 62 16 77-11 107-15 123-3 158-6 180-11 129-26 180-52 114-52 114l3 19s40-50 51-84 25-95 29-125 8-62 10-100-3-112 1-144 17-127 17-150-1-87-19-102-59-47-102-52-127 39-127 39z" fill="#b64f3c"/><path d="m445.57 92.91s59.4 3.6 67 9.23 28 33.08 39.72 52.11 54.17 179.6 60.89 199.52 40.33 94.83 49 122.56 32.14 120.58 32.75 138.6 4.13 92.88 4.13 92.88l31.34 55.39 12.35-61.75-10.4-122.64-25.26-97.5-55.39-141.54-28.38-102.72-14.05-57.86-21.54-55-31.66-31.57-68.67-30z" fill="#983229"/><path d="m287.66 175.1s65.39-101.83 112.69-118.19 80.89-15.55 109.07-9.39 68.87 52.48 68.87 52.48-34-26.44-78.95-20.65-98.79 24.7-98.79 24.7l-59.28 54.34z" fill="#e59b7c"/><path d="m360.42 155.22s57.42-53.61 90-61 95.8 3.32 104.87 7.29 37.49 51.91 43 65.87 28.75 103.66 30.86 120 54.78 148.23 60 169.81 36.76 124.14 41.38 177.1-2.59 122.36-2.59 122.36l7.77 17.35s16.6-59.12 14.46-94.79-11.34-97.57-18.55-127-15.14-60.65-27.12-96.77-43.61-103.16-51.5-134.44-30.44-124.46-38.82-145.88-32.64-80.66-54.87-88.07-72.12-22.24-113.98-11.23-104.06 82.6-104.06 82.6z" fill="#b64f3c"/><path d="m262.36 134h19.24l24.4-35 101-17 136 16 33 36 25 2s-14.09-48-22-54-76-24-94-27-111 3-125 5-81.64 27.11-88 32-9.64 42-9.64 42z" fill="#d47053"/><path d="m576 134s-27-30-32-32-114-18-127-17-83 16-96 19-39.4 30-39.4 30 7.4-28 14.4-33 96-22 109-22 133 14 139 17 32 38 32 38z" fill="#b64f3c"/><path d="m724.5 150.5c-20.5-20.5-454.5-35.5-503-14 .5-.5-102 746-102 746l310 78s305.5-12.5 341-15 61.5-24.5 62-55-86.5-685.5-86-695c-2.5-21.5-1.5-24.5-22-45z" fill="#983229"/><path d="m702 924c36-42-84-659-75-703s-432 72-432 72l-75 576 464 85s41.91-2 51-2c25.21.05 40.54 2.87 67-28z" fill="#b64f3c"/><path d="m296 893c28 36 372.33 95 393.33 34s10.67-198 2-215.09c-12.33-24.47-112-83.91-300-78.91s-259 58-275 80 151.67 144 179.67 180z" opacity=".25"/><path d="m115.12 928.89c28 36 549 54 570-7s15-194.17 0-217.08-112-83.92-300-78.92-259 58-275 80-23 187 5 223z" fill="#983229"/><path d="m107 929c28 36 549 54 570-7s15-194.17 0-217.09-112-83.91-300-78.91-259 58-275 80-23 187 5 223z" fill="#d47053"/><path d="m635.06 161.39c-4-8-66-28-227-28s-194.72 14-214 26-20.06 291.61-20.06 310.61 84 50.39 222 50.39 272-23 272-44-28.94-307-32.94-315z" opacity=".25"/><path d="m642.11 155.33c-4-8-66-28-227-28s-194.73 14-214 26-58 284-58 303 122 58 260 58 272-23 272-44-29-307-33-315z" fill="#b64f3c"/><path d="m635 150c-4-8-66-28-227-28s-194.72 14-214 26-58 284-58 303 122 58 260 58 272-23 272-44-29-307-33-315z" fill="#d47053"/><path d="m693 594s8 115 19 135 114 2 122-14-20-162-20-162l-109 13-14 10z" fill="#b64f3c"/><path d="m833 716c-5 13-74 19-85 12s-12-35-12-35l-12-107 94-12 17 114s3 15-2 28z" fill="#983229"/><path d="m690 593c5 1 7-8 8-13s3-12 8-11 9 38 10 42 6 13 12 15 15.32 1 15 0-14-11-17-15-5-47-13-50-16-2.83-23 8.09-5 22.91 0 23.91z" fill="#d47053"/><path d="m730 620c10 16 87-2 96-8s5-51-6-62-107 6-109 8 6 8 7 14 2 32 12 48z" fill="#7a1b1a"/><path d="m201 432 62 2" fill="none" stroke="#7a1b1a" stroke-miterlimit="10" stroke-width="6"/><path d="m550.2 434.38 61.55-7.76" fill="none" stroke="#7a1b1a" stroke-miterlimit="10" stroke-width="6"/><path d="m216 317c-1 18-8 217-8 224s10 16 26 16 25-14 25-21-2-181.11 0-211.55 27-186.45 28-195.45c-7 0-39 4-41 5z" fill="#983229"/><path d="m602 138c2 2-10 174-9 201s25 174 27 184-2 19-22 25-25-2-27-11-7-100-7-109-9.13-56-11.06-86 3.06-208 7.06-211 40 5 42 7z" fill="#983229"/><path d="m213 315c-1 18-8 217-8 224s10 16 26 16 25-14 25-21-2-181.11 0-211.55 27-186.45 28-195.45c-7 0-39 4-41 5z" fill="#fad8bd"/><g fill="#7a1b1a"><circle cx="231" cy="342" r="6"/><circle cx="230" cy="387" r="6"/><circle cx="231" cy="432" r="6"/><circle cx="231" cy="496" r="6"/></g><path d="m599 137c2 2-10 174-9 201s25 174 27 184-2 19-22 25-25-2-27-11-7-100-7-109-9.13-56-11.06-86 3.06-208 7.06-211 40 5 42 7z" fill="#fad8bd"/><g fill="#7a1b1a"><path d="m253.2 404.65-40.49-1.27a13.74 13.74 0 0 0 -14.17 13.31l-1 33.49a13.74 13.74 0 0 0 13.31 14.17l40.49 1.27a13.74 13.74 0 0 0 14.17-13.31l1.05-33.49a13.74 13.74 0 0 0 -13.36-14.17zm6.43 42.09a13.74 13.74 0 0 1 -14.17 13.31l-28.5-.89a13.74 13.74 0 0 1 -13.3-14.16l.71-22.73a13.74 13.74 0 0 1 14.17-13.27l28.5.89a13.74 13.74 0 0 1 13.3 14.11z"/><circle cx="569" cy="337" r="6"/><circle cx="573" cy="382" r="6"/><circle cx="579" cy="427" r="6"/><circle cx="587" cy="492" r="6"/><path d="m597.46 399.17-40.18 5.1a13.76 13.76 0 0 0 -11.91 15.37l4.22 33.24a13.76 13.76 0 0 0 15.41 11.91l40.19-5.11a13.73 13.73 0 0 0 11.9-15.36l-4.22-33.25a13.73 13.73 0 0 0 -15.41-11.9zm13 40.56a13.75 13.75 0 0 1 -11.9 15.37l-28.29 3.59a13.73 13.73 0 0 1 -15.36-11.9l-2.91-22.57a13.74 13.74 0 0 1 11.91-15.36l28.28-3.59a13.75 13.75 0 0 1 15.37 11.9z"/></g><circle cx="780" cy="606" fill="#b64f3c" r="6"/></svg>